<?xml version="1.0" encoding="utf-8"?>
<!-- Generator: Adobe Illustrator 19.0.0, SVG Export Plug-In . SVG Version: 6.00 Build 0)  -->
<svg version="1.1" id="Layer_1" xmlns="http://www.w3.org/2000/svg" xmlns:xlink="http://www.w3.org/1999/xlink" x="0px" y="0px"
	 viewBox="0 0 1280 1024" style="enable-background:new 0 0 1280 1024;" xml:space="preserve">
<style type="text/css">
	.st0{fill:#8CA6DB;}
	.st1{fill:#FFFFFF;stroke:#000000;stroke-width:6;stroke-miterlimit:10;}
</style>
<path d="M1016.2,424c-1.1-1-2.1-1.9-3.1-2.9c-3.8-4.7-8-8.6-11.9-12.1c-1.1-1-2.1-1.9-3.1-2.9c-3.8-4.7-8-8.6-11.9-12.1
	c-1.6-1.5-3.1-2.9-4.6-4.3c-4.1-4-10.4-6.1-16.7-7.3c-2.1-1.3-4.9-2.5-8.6-3.3c-0.2,0-0.4-0.1-0.6-0.1c0,0,0-0.1,0-0.1
	c0.5-4.2-0.8-11.7-14.4-14.7c-4.5-1-9-2-13.7-3.1c-0.2-2.6-1.1-5.1-2.6-7.4c-2.5-3.7-6.6-6.6-12.6-8.9c-0.4-2.1-1.2-4.2-2.4-6.1
	c-2.5-3.7-6.6-6.6-12.6-8.9c-0.4-2.1-1.2-4.2-2.4-6.1c-4.2-6.3-13.2-10.4-28.2-12.9c-10.3-1.7-21.5-2.3-28.5-2.3
	c-5.7,0-13.5,0-15.5,7.9l0,0.2c-1.2,4.9-2.4,10.1-3.8,15.3c-52.7-14.6-106.7-28.2-147.6-28.2c-13.4,0-24.7,1.4-34.7,4.2
	c-33.3,9.5-41.3,40-38.1,63.3c1.5,10.8,4.8,17.8,9.8,20.8c-1,0.4-1.9,0.9-2.9,1.4c-0.6-1.4-1.4-2.8-2.3-4
	c-5.9-7.5-20-11.3-32.6-13.2c-0.7-3.3-1.5-6.6-2.7-9.8c-5.8-16.5-16.4-28.1-24-35.4c-1.4-1.3-2.9-2.5-4.5-3.6
	c-3.6-4.6-7.3-8.4-10.5-11.4c-1.4-1.3-2.9-2.6-4.6-3.7c-3.6-4.5-7.3-8.3-10.4-11.3c-7.6-7.2-19.2-11.2-32.8-11.2
	c-31.9,0-70,21.8-81.2,63.6c-10.8,41.2,9.5,70.2,27.4,95.9c1.2,1.7,2.4,3.5,3.6,5.2c-7-0.8-13.9-1.2-20.7-1.2
	c-18.8,0-35.8,2.9-50.7,8.6l-0.1,0.1c-24,9.7-39.8,28.3-43.2,51.3c-3.6,24.1,6.7,48.5,27.6,65.4c0.5,0.4,0.9,0.7,1.4,1.1
	c3.8,5,8.4,9.7,13.6,13.9c0.5,0.4,0.9,0.7,1.4,1.1c3.8,5,8.4,9.7,13.6,13.9c4.5,3.7,10.2,6.7,16.9,8.9c-2.5,1.4-4.9,2.9-7.1,4.3
	c-43.1,28.3-64.4,68.4-54.3,102.3c3.7,12.4,11.2,22.4,21.7,29.3c3.9,5.9,9,11,15,15c11.1,16.8,31.3,26.4,56.9,26.4
	c28,0,54.5-14.2,78.8-42.1c18.5-21.3,36.2-50.9,53.9-90.1c40.2,7.6,77.2,26.3,104.8,53c2.1,2,4.8,3.1,7.7,3.1c0,0,0,0,0,0
	c13.9,0,21.8-25.3,22.1-26.4c7.2-23.7-0.1-45.1-20.1-58.8c-3.7-5.6-8.7-10.7-15-15c-3.8-5.8-9.1-11.1-15.6-15.4
	c-2.1-1.4-4.2-2.6-6.3-3.8c11.6-7.7,23.2-18.6,33.2-32.8c1.9,1.7,3.9,3.3,5.9,4.8c0.1,0.2,0.2,0.3,0.3,0.5
	c4.3,5.8,9.2,10.7,14.7,14.5c0.1,0.2,0.2,0.3,0.3,0.5c11.6,15.9,28.3,24.7,46.9,24.7c20,0,41.7-9,61.8-25.1
	c3.4,4.2,7.2,7.5,11.2,9.6c4.6,7.6,10.4,13.3,16.8,15.8c2.8,1.1,5.7,1.7,8.8,1.7c10.3,0,21.4-6.3,33.8-19.3
	c3.1-3.2,6.5-7.1,10.1-11.5c0.1,0.1,0.2,0.1,0.3,0.2c5.4,7,11.5,12.1,16.1,16c1.9,1.6,3.6,3,4.8,4.2c7.5,7.3,23.7,8.4,32.6,8.4
	c23.5,0,54.2-7.1,70.2-27.1c9.6-12,12.6-27.2,8.9-44c-2.5-11.3-10.1-25.4-18.2-40.3c-0.4-0.8-0.9-1.6-1.3-2.4
	c13,3.4,26.7,4.4,29.8,4.4c1.3,0,2.4,0,3.4-0.2l9-0.9v-7.4C1048.4,453.4,1029.8,436.5,1016.2,424z M886.1,475.8
	c0.3,0.5,0.5,1,0.8,1.5c-0.4-0.1-0.8-0.2-1.2-0.3C885.8,476.6,886,476.2,886.1,475.8z M676.4,429.3c-2.2-2-4.5-3.7-6.9-5.1
	c-0.4-0.6-0.8-1.2-1.2-1.8c-1.5-2.2-3.1-4.2-4.8-6c12.4-4.7,25.9-8.5,40.7-11.2c-3.8,2.5-7.6,5.2-11.2,8.2
	C687.8,417.6,682.1,422.9,676.4,429.3z M771.9,399.7c9.1,0,18.4,0.3,28.1,0.7c-1.8,6.3-3.6,12.3-5.3,18.2
	c-6.4-7.4-15.6-13.5-22.9-18.2c-0.4-0.2-0.7-0.5-1.1-0.7C771.2,399.7,771.5,399.7,771.9,399.7z M416.7,716.1
	c5.8-12.6,15.2-24.5,27-34c-2.8,6.2-5.7,12.2-8.6,17.7c-8.1,15.2-16.1,25.9-23.4,31.3C412.7,726.2,414.3,721.1,416.7,716.1z
	 M517.7,451.2c-8.3-11.7-15.8-22.7-19.7-34.8c5.4,5.1,15.4,9.1,25.5,12C521.7,435.6,519.8,443.2,517.7,451.2z M408,558.9
	c-0.6-3.3-0.9-6.8-0.7-10.2c0.4-7.7,3.3-21.7,18.8-29.5c7.1-3.6,15.2-5.7,24.1-6.3c-0.1,0.6-0.3,1.2-0.5,1.8l0,0.1
	c-7.3,27.7-22,44.2-39.3,44.2C409.6,559,408.8,558.9,408,558.9z"/>
<g>
	<path class="st0" d="M637.6,617.7c-24.1-16-61.6-22-101.6-20.3c4.1-10.3,7.9-20.7,11.7-31.3l6.2,7.3c15.1,16,70.2-3.7,96-70.3
		c21-54,3.1-97.7-24.4-97.7c-25.1,0-43,43-50.9,66c-0.3,1-0.7,1.3-0.3,0c7.9-29,22.7-51.7,26.2-65c3.4-14.3-53-17-53.4-15.7
		c-5.4,31-15.7,70.9-26.3,108.2c-2.8-1.6-5.6-3.1-8.4-4.5c-3.4-53-65.4-78-50.9-137.4c6.9-27.7,26.9-40,46.5-30.3
		c6.5,3.3-29.6,51-30.6,54c-3.1,9.7,41.7,20,51.3,18.7l0.3-0.3c18.2-43.7-2.8-70-17.9-84.7c-20.3-19.3-83-6.3-97.4,47.7
		c-12.7,48.7,23.4,78.7,41.7,112c-33.7-7.3-64.7-5.7-88.1,3.3C320.5,496,318.1,548,353.9,577c30.6,25,137.4,11,155.6-56.7
		c1.4-5.3,2.4-10.7,2.8-15.7c1.9,1.1,3.8,2.2,5.8,3.4c-6.7,23-13.3,44.7-18.9,62.3l-10,32c-37.2,6.7-72.6,18.7-96.4,34
		C317.1,686,328.4,761,396.6,761c53.7,0,94-58.7,126.7-133.4c41.3,6.3,84.7,25,117.7,57C645.5,689,675.4,643,637.6,617.7z
		 M567.7,508.6c14.5-43.7,32.7-81.7,44.8-81.7s2.4,25.3-15.1,74.3c-14.8,39.7-25.8,67-40.3,59.7c-2.1-1-3.8-2.7-5.5-4.7
		C557,540.6,562.5,524.6,567.7,508.6z M463.4,523.3c-13.1,49.7-45.8,61-71.9,44.7c-23.4-14.7-31.7-63.7,4.1-81.7
		c16.5-8.3,38.2-10.3,64-3.7C465.1,495,467.5,508.3,463.4,523.3z M405.2,751.4c-44.8,0-41-69.7,14.1-107
		c16.2-11.3,38.2-17.7,62.7-19C462.3,684.3,436.2,751.4,405.2,751.4z"/>
	<path class="st0" d="M978.7,402.9c-13.1-12.7-101.6-8.3-88.1,53c4.8,21.7,29.6,53.7,34.1,73.3c9.3,42-33.4,34.7-43,30
		c-6.5-3.3,21.7-52.3,22.7-55.3c3.1-9.7-38.2-16.7-47.8-15.3v0.3c-8,18.8-9.2,33.1-6.8,44.4c-5,6.8-9.3,11.7-12.1,14.6
		c-6.2,6.3-14.5,3-12-12.3c3.8-22,17.6-65,33.7-112.7c5.9-17,11.4-32.3,16.5-45c21,3.3,42,7.3,63.3,11.7c1,0.3,20.7-6,4.1-9.7
		c-20-4.3-41-9.7-62.3-15.7c5.9-14.3,10-23,10.3-23.7c6.5-16-54.4-17-54.7-15.7c-2.1,8.7-4.1,17-6.5,25.3
		c-72.6-20.3-144.2-38.7-186.6-26.7c-44.4,12.7-30.6,68.7-24.8,66c54.4-26.3,127.4-28,205.9-19C806.6,437,788,492.3,783.2,512.3
		c-1.4,5.6-2.2,11.1-2.4,16.5c-19.7,21.9-44.4,33.6-55.4,31.6c-12.4-2.3-18.6-15-18.2-35c41-26.7,85.4-60.3,89.2-81
		c2.8-14.7-28.6-30-33-34.7c-15.5-14.7-81.2,13.7-102.6,80.4c-14.1,44.3,10.3,87.7,47.5,87.7c25.4,0,52.4-16.8,72.9-39.2
		c1.8,20.6,11.6,36.6,20.8,40.2c8.3,3.3,18.9-2,31.7-15.3c5.6-5.8,12.1-13.8,18.4-22.6c6.3,16.3,20.3,24.8,27,31.3
		c12.7,12.3,108.8,8,95-53.3c-4.5-20-30.3-56-34.8-76.3c-9.3-42,26.5-32.3,36.1-26.7c6.2,3.7-26.2,34-26.9,36.7
		c-3.1,10,38.2,16.7,47.8,15.7v-0.3C1012.8,428.3,993.1,416.9,978.7,402.9z M713.6,490c11.7-39,32.4-75.7,46.5-68.7
		c10,5-15.1,57.7-51.6,91C709.5,505.6,711.2,498,713.6,490z"/>
</g>
<g>
	<path class="st1" d="M633.6,611.7c-24.1-16-61.6-22-101.6-20.3c4.1-10.3,7.9-20.7,11.7-31.3l6.2,7.3c15.1,16,70.2-3.7,96-70.3
		c21-54,3.1-97.7-24.4-97.7c-25.1,0-43,43-50.9,66c-0.3,1-0.7,1.3-0.3,0c7.9-29,22.7-51.7,26.2-65c3.4-14.3-53-17-53.4-15.7
		c-5.4,31-15.7,70.9-26.3,108.2c-2.8-1.6-5.6-3.1-8.4-4.5c-3.4-53-65.4-78-50.9-137.4c6.9-27.7,26.9-40,46.5-30.3
		c6.5,3.3-29.6,51-30.6,54c-3.1,9.7,41.7,20,51.3,18.7l0.3-0.3c18.2-43.7-2.8-70-17.9-84.7c-20.3-19.3-83-6.3-97.4,47.7
		c-12.7,48.7,23.4,78.7,41.7,112c-33.7-7.3-64.7-5.7-88.1,3.3C316.5,490,314.1,542,349.9,571c30.6,25,137.4,11,155.6-56.7
		c1.4-5.3,2.4-10.7,2.8-15.7c1.9,1.1,3.8,2.2,5.8,3.4c-6.7,23-13.3,44.7-18.9,62.3l-10,32c-37.2,6.7-72.6,18.7-96.4,34
		C313.1,680,324.4,755,392.6,755c53.7,0,94-58.7,126.7-133.4c41.3,6.3,84.7,25,117.7,57C641.5,683,671.4,637,633.6,611.7z
		 M563.7,502.6c14.5-43.7,32.7-81.7,44.8-81.7s2.4,25.3-15.1,74.3c-14.8,39.7-25.8,67-40.3,59.7c-2.1-1-3.8-2.7-5.5-4.7
		C553,534.6,558.5,518.6,563.7,502.6z M459.4,517.3c-13.1,49.7-45.8,61-71.9,44.7c-23.4-14.7-31.7-63.7,4.1-81.7
		c16.5-8.3,38.2-10.3,64-3.7C461.1,489,463.5,502.3,459.4,517.3z M401.2,745.4c-44.8,0-41-69.7,14.1-107
		c16.2-11.3,38.2-17.7,62.7-19C458.3,678.3,432.2,745.4,401.2,745.4z"/>
	<path class="st1" d="M974.7,396.9c-13.1-12.7-101.6-8.3-88.1,53c4.8,21.7,29.6,53.7,34.1,73.3c9.3,42-33.4,34.7-43,30
		c-6.5-3.3,21.7-52.3,22.7-55.3c3.1-9.7-38.2-16.7-47.8-15.3v0.3c-8,18.8-9.2,33.1-6.8,44.4c-5,6.8-9.3,11.7-12.1,14.6
		c-6.2,6.3-14.5,3-12-12.3c3.8-22,17.6-65,33.7-112.7c5.9-17,11.4-32.3,16.5-45c21,3.3,42,7.3,63.3,11.7c1,0.3,20.7-6,4.1-9.7
		c-20-4.3-41-9.7-62.3-15.7c5.9-14.3,10-23,10.3-23.7c6.5-16-54.4-17-54.7-15.7c-2.1,8.7-4.1,17-6.5,25.3
		c-72.6-20.3-144.2-38.7-186.6-26.7c-44.4,12.7-30.6,68.7-24.8,66c54.4-26.3,127.4-28,205.9-19C802.6,431,784,486.3,779.2,506.3
		c-1.4,5.6-2.2,11.1-2.4,16.5c-19.7,21.9-44.4,33.6-55.4,31.6c-12.4-2.3-18.6-15-18.2-35c41-26.7,85.4-60.3,89.2-81
		c2.8-14.7-28.6-30-33-34.7c-15.5-14.7-81.2,13.7-102.6,80.4c-14.1,44.3,10.3,87.7,47.5,87.7c25.4,0,52.4-16.8,72.9-39.2
		c1.8,20.6,11.6,36.6,20.8,40.2c8.3,3.3,18.9-2,31.7-15.3c5.6-5.8,12.1-13.8,18.4-22.6c6.3,16.3,20.3,24.8,27,31.3
		c12.7,12.3,108.8,8,95-53.3c-4.5-20-30.3-56-34.8-76.3c-9.3-42,26.5-32.3,36.1-26.7c6.2,3.7-26.2,34-26.9,36.7
		c-3.1,10,38.2,16.7,47.8,15.7v-0.3C1008.8,422.3,989.1,410.9,974.7,396.9z M709.6,484c11.7-39,32.4-75.7,46.5-68.7
		c10,5-15.1,57.7-51.6,91C705.5,499.6,707.2,492,709.6,484z"/>
</g>
<g>
	<g>
		<path d="M886,478.4c1.9,0,1.9-3,0-3C884.1,475.4,884.1,478.4,886,478.4L886,478.4z"/>
	</g>
</g>
<g>
	<g>
		<path d="M768.9,404.5c3.1,5,8,7.9,13.7,9c0.9,0.2,1.9,0.3,2.8,0.5c0.6,0.1,1.2,0.3,1.8,0.5c-0.3-0.1-0.6-0.3-0.9-0.4
			c-0.8-1.1-1.8-1.9-2.2-3.3c-0.7-2.7,0.8-6.3,3.3-7.6c-5.1,2.6-7,10.3-3.9,15.1c3.4,5.3,9.5,6.7,15.1,3.9
			c8.7-4.4,9.6-17.2,3.1-23.9c-2.8-2.9-6.5-4.7-10.4-5.5c-1.5-0.3-3-0.6-4.5-0.9c-1.3-0.3-0.4-0.3,0.2,0.2c-1.7-1.6,0.9,1.1,0.9,1.2
			c-3.1-4.9-10-7.2-15.1-3.9C768,392.6,765.7,399.3,768.9,404.5L768.9,404.5z"/>
	</g>
</g>
<g>
	<g>
		<path d="M696.6,389.6c-6.5,4.6-12.9,9.2-19.4,13.8c-6.5,4.7-12.7,9-17.5,15.5c-2.7,3.7-1.6,10.4,1.7,13.3
			c6.3,5.6,14.7,6.1,21.6,1.1c6.5-4.7,8-12.5,8.2-20c0.3-14.2-21.7-14.2-22,0c0,1-0.5,2.7-0.3,3.6c-0.4,1.2-0.2,1,0.6-0.7
			c2.2-2,4.7-1.8,7.5,0.5c0.6,4.4,1.1,8.9,1.7,13.3c3-4.1,8.6-6.9,12.7-9.8c5.4-3.9,10.9-7.7,16.3-11.6c4.8-3.4,7.1-9.6,3.9-15.1
			C708.9,388.7,701.5,386.1,696.6,389.6L696.6,389.6z"/>
	</g>
</g>
<g>
	<g>
		<path d="M487.5,410.1c2.8,8,8.4,12.5,13.4,18.9c4,5.2,5.1,11.9,3.4,18.1c7.1,1.9,14.1,3.9,21.2,5.8c1-7.6,2.8-15.1,5.9-22.1
			c2.4-5.4,1.6-11.8-3.9-15.1c-4.7-2.7-12.6-1.5-15.1,3.9c-3.9,8.9-6.8,17.7-8.2,27.4c-0.8,5.9,1.4,11.8,7.7,13.5
			c5.7,1.6,12-1.9,13.5-7.7c2.7-10,1.7-20.3-2.6-29.7c-1.9-4.1-4.6-7.7-7.7-11.1c-2.2-2.4-5.5-4.8-6.6-7.9
			c-1.9-5.6-7.5-9.3-13.5-7.7C489.8,398.1,485.6,404.5,487.5,410.1L487.5,410.1z"/>
	</g>
</g>
<polygon points="824,362 840,365 823,365 "/>
<line x1="873" y1="360" x2="855" y2="355"/>
<path class="st1" d="M874,357"/>
</svg>
